<svg xmlns="http://www.w3.org/2000/svg" width="486" height="87" viewBox="0 0 486 87">
  <path fill="#1F2D3D" fill-rule="evenodd" d="M406.918676,487.482111 C407.782024,487.482111 408.294293,488.424828 407.817353,489.129157 L384.451738,523.526406 C383.85998,524.397607 382.475531,523.988012 382.475531,522.939104 L382.475531,498.517317 L367.080986,498.517317 C366.219845,498.517317 365.705369,497.5746 366.182308,496.872439 L389.547924,462.473022 C390.139682,461.601821 391.524131,462.013583 391.524131,463.060324 L391.524131,487.482111 L406.918676,487.482111 Z M430,524 L430,462 L471.938246,462 L471.938246,473.720067 L443.978692,473.720067 L443.978692,485.886489 L468.80221,485.886489 L468.80221,497.337877 L443.978692,497.337877 L443.978692,512.279933 L474,512.279933 L474,524 L430,524 Z M481,477.7308 C483.285554,477.064644 486.238184,476.442604 489.849141,475.86468 C493.462285,475.288962 497.254774,475 501.228795,475 C505.261869,475 508.616932,475.531602 511.298357,476.592599 C513.975408,477.655803 516.099114,479.157963 517.665102,481.101287 C519.228902,483.044612 520.342153,485.351895 521.007042,488.023139 C521.667556,490.696588 522,493.670028 522,496.947871 L522,524 L508.542569,524 L508.542569,498.588998 C508.542569,494.21707 507.971727,491.117899 506.827857,489.2981 C505.683986,487.476096 503.54497,486.565094 500.415182,486.565094 C499.452843,486.565094 498.429265,486.611416 497.346634,486.701855 C496.261816,486.792293 495.29729,486.900378 494.455244,487.019492 L494.455244,524 L481,524 L481,477.7308 Z M525,500.363934 C525,496.149727 525.653005,492.464481 526.961222,489.306011 C528.265026,486.147541 529.981371,483.515847 532.10805,481.410929 C534.230317,479.303825 536.674674,477.710383 539.438916,476.62623 C542.200951,475.544262 545.042406,475 547.956662,475 C554.758065,475 560.129915,477.063388 564.078831,481.183607 C568.025542,485.306011 570,491.367213 570,499.369399 C570,500.151913 569.969115,501.008743 569.907344,501.942077 C569.845573,502.873224 569.786008,503.701639 569.726444,504.422951 L538.938131,504.422951 C539.240367,507.19235 540.546377,509.386885 542.856162,511.013115 C545.161535,512.634973 548.258898,513.448087 552.146044,513.448087 C554.634523,513.448087 557.07888,513.222951 559.479116,512.770492 C561.877145,512.320219 563.83616,511.765027 565.353956,511.102732 L567.176194,522.022951 C566.445975,522.383607 565.475292,522.744262 564.261937,523.104918 C563.044171,523.465574 561.696245,523.782514 560.207128,524.053552 C558.720218,524.32459 557.125208,524.549727 555.424306,524.728962 C553.72561,524.910383 552.022502,525 550.323806,525 C546.010883,525 542.262722,524.368306 539.074909,523.104918 C535.884891,521.84153 533.244191,520.112568 531.148397,517.915847 C529.054809,515.719126 527.508334,513.118033 526.504559,510.108197 C525.50299,507.102732 525,503.852459 525,500.363934 Z M558,496 C557.938038,494.871223 557.738874,493.770504 557.406934,492.702158 C557.070568,491.631655 556.552742,490.682014 555.853455,489.848921 C555.151955,489.020144 554.268994,488.335971 553.20236,487.800719 C552.13794,487.265468 550.812392,487 549.227932,487 C547.705434,487 546.395377,487.252518 545.299975,487.755396 C544.20236,488.26259 543.290632,488.929496 542.558151,489.760432 C541.827883,490.593525 541.263585,491.558273 540.86747,492.656835 C540.471355,493.757554 540.183673,494.871223 540,496 L558,496 Z M604.734438,488.04722 C603.524821,487.744464 602.10665,487.424029 600.475533,487.088125 C598.842221,486.756641 597.090362,486.586479 595.217761,486.586479 C594.37037,486.586479 593.358332,486.663825 592.181644,486.814098 C591.002762,486.968791 590.10927,487.134533 589.505559,487.317954 L589.505559,524 L576,524 L576,478.557931 C578.417038,477.707121 581.270944,476.90272 584.566107,476.140306 C587.859075,475.380102 591.529637,475 595.579987,475 C596.30444,475 597.18037,475.046408 598.207776,475.137013 C599.235182,475.227619 600.262588,475.349163 601.289994,475.501646 C602.3174,475.654129 603.344806,475.83534 604.372212,476.04749 C605.397422,476.26185 606.275547,476.520408 607,476.823163 L604.734438,488.04722 Z M651,517.907926 C651,525.726381 649.038932,531.530224 645.118971,535.319456 C641.199009,539.104283 635.139701,541 626.941046,541 C624.066842,541 621.194812,540.742394 618.322783,540.227182 C615.450753,539.71197 612.787441,539.031625 610.332845,538.181745 L612.667863,526.818455 C614.761553,527.666133 616.961776,528.333267 619.266357,528.817654 C621.568763,529.302042 624.186419,529.544235 627.121499,529.544235 C630.950147,529.544235 633.656942,528.696557 635.244059,526.998999 C636.829002,525.301441 637.624735,523.121697 637.624735,520.453163 L637.624735,518.726982 C636.187633,519.394115 634.704874,519.893915 633.180807,520.226381 C631.654566,520.561049 629.993528,520.726181 628.197694,520.726181 C621.673122,520.726181 616.676964,518.773219 613.207048,514.86289 C609.732784,510.954764 608,505.485588 608,498.453163 C608,494.939151 608.539185,491.742194 609.615381,488.86229 C610.691576,485.984588 612.263475,483.514211 614.328901,481.453363 C616.392153,479.394716 618.920669,477.802842 621.91445,476.679944 C624.906057,475.559247 628.286834,475 632.05678,475 C633.674335,475 635.333199,475.07486 637.039893,475.226781 C638.744413,475.378703 640.435888,475.57466 642.112145,475.816853 C643.786227,476.059047 645.388563,476.347478 646.914804,476.679944 C648.441046,477.014612 649.802053,477.36249 651,477.725781 L651,517.907926 Z M621,499.593425 C621,507.198545 624.02585,511 630.077551,511 C631.45551,511 632.744218,510.818768 633.941497,510.454093 C635.140952,510.089419 636.157551,509.66286 637,509.174418 L637,487.457501 C636.338231,487.335943 635.561088,487.227645 634.662041,487.137029 C633.762993,487.046413 632.713741,487 631.516463,487 C627.981224,487 625.342857,488.18685 623.605714,490.560549 C621.866395,492.932038 621,495.94447 621,499.593425 Z M703,477 C700.234607,486.121368 697.346753,494.67156 694.336438,502.652757 C691.326124,510.636134 688.037488,518.375345 684.474985,525.876929 C683.183578,528.578022 681.894397,530.873625 680.607443,532.763736 C679.318262,534.653847 677.904394,536.21477 676.370291,537.444323 C674.836188,538.673877 673.103921,539.574241 671.169037,540.145417 C669.236379,540.714412 666.98087,541 664.404735,541 C662.253874,541 660.274458,540.803795 658.464261,540.415744 C656.654065,540.023333 655.16672,539.587322 654,539.109889 L656.389103,528.397077 C657.800745,528.87669 659.056527,529.208059 660.160903,529.389004 C661.263053,529.567769 662.429772,529.659332 663.656609,529.659332 C666.108057,529.659332 667.993956,529.011854 669.312083,527.723439 C670.630209,526.430664 671.75017,524.645195 672.669741,522.367033 C669.541419,516.36751 666.415322,509.628947 663.287,502.157884 C660.160903,494.686821 657.217385,486.302313 654.458672,477 L668.984778,477 C669.599309,479.339204 670.322943,481.874613 671.155678,484.606227 C671.986186,487.337841 672.863453,490.095616 673.787477,492.888272 C674.709274,495.676568 675.646658,498.392922 676.601854,501.032973 C677.55705,503.673025 678.465488,506.07327 679.327169,508.233709 C680.126505,506.07327 680.957014,503.673025 681.818694,501.032973 C682.682601,498.392922 683.526469,495.676568 684.356977,492.888272 C685.187486,490.095616 685.989049,487.337841 686.75944,484.606227 C687.525378,481.874613 688.21784,479.339204 688.834598,477 L703,477 Z M745,516.485636 L745,524 L708,524 L708,462 L716.6064,462 L716.6064,516.485636 L745,516.485636 Z M751,524 L751,477 L759,477 L759,524 L751,524 Z M755.5,468 C753.972346,468 752.673395,467.504268 751.603149,466.512805 C750.532903,465.521342 750,464.182648 750,462.501092 C750,460.817352 750.532903,459.480842 751.603149,458.487195 C752.673395,457.495732 753.972346,457 755.5,457 C757.027654,457 758.326605,457.495732 759.396851,458.487195 C760.467097,459.480842 761,460.817352 761,462.501092 C761,464.182648 760.467097,465.521342 759.396851,466.512805 C758.326605,467.504268 757.027654,468 755.5,468 Z M767,479.302198 C768.979125,478.830612 771.610461,478.329016 774.894008,477.797409 C778.173058,477.265803 781.949138,477 786.222248,477 C790.059051,477 793.245891,477.518745 795.787267,478.549804 C798.324145,479.583006 800.352748,481.027775 801.868577,482.886254 C803.384407,484.746876 804.452684,486.974049 805.07341,489.569917 C805.691886,492.165785 806,495.027456 806,498.152787 L806,524 L797.36382,524 L797.36382,499.923379 C797.36382,497.091718 797.163658,494.673766 796.761086,492.667381 C796.358515,490.660996 795.692809,489.038311 794.766219,487.799325 C793.83738,486.560339 792.598178,485.660038 791.050862,485.100566 C789.503547,484.538949 787.582896,484.260285 785.293409,484.260285 C784.36457,484.260285 783.404244,484.288151 782.414682,484.348171 C781.422871,484.406048 780.480537,484.481073 779.583184,484.568959 C778.683582,484.656846 777.878438,484.759737 777.167753,484.877634 C776.457067,484.997674 775.946543,485.085561 775.63618,485.143437 L775.63618,524 L767,524 L767,479.302198 Z M830.12981,498.200868 C831.952694,499.583783 833.881507,501.298773 835.916252,503.343653 C837.950996,505.388533 839.957051,507.597266 841.932209,509.974221 C843.905161,512.34899 845.772182,514.754346 847.53548,517.188103 C849.296571,519.624044 850.784009,521.896133 852,524 L842.066829,524 C840.791252,521.896133 839.319262,519.746387 837.648653,517.548578 C835.975837,515.355139 834.230195,513.251272 832.409518,511.234793 C830.586634,509.220499 828.732854,507.372242 826.850385,505.687837 C824.967915,504.005618 823.173721,502.592116 821.474423,501.447333 L821.474423,524 L813,524 L813,455.444087 L821.474423,454 L821.474423,496.75678 L826.303078,491.976655 C828.064169,490.233264 829.796571,488.459287 831.498076,486.654724 C833.197374,484.850161 834.808397,483.122062 836.326732,481.468244 C837.845066,479.814425 839.151539,478.35723 840.243945,477.092288 L850.177116,477.092288 C848.780161,478.597547 847.261827,480.249181 845.622114,482.053744 C843.980195,483.858307 842.278689,485.678162 840.517598,487.511126 C838.754301,489.346275 836.979968,491.181424 835.187981,493.012203 C833.393787,494.849537 831.709937,496.577635 830.12981,498.200868 Z" transform="translate(-366 -454)"/>
</svg>
