<svg xmlns="http://www.w3.org/2000/svg" width="486" height="136" viewBox="0 0 486 136">
  <g fill="none" fill-rule="evenodd">
    <path fill="#1F2D3D" d="M40.918676,33.482111 C41.782024,33.482111 42.294293,34.424828 41.817353,35.129157 L18.451738,69.526406 C17.85998,70.397607 16.475531,69.988012 16.475531,68.939104 L16.475531,44.517317 L1.080986,44.517317 C0.219845,44.517317 -0.294631,43.5746 0.182308,42.872439 L23.547924,8.473022 C24.139682,7.601821 25.524131,8.013583 25.524131,9.060324 L25.524131,33.482111 L40.918676,33.482111 Z M64,70 L64,8 L105.938246,8 L105.938246,19.720067 L77.978692,19.720067 L77.978692,31.886489 L102.80221,31.886489 L102.80221,43.337877 L77.978692,43.337877 L77.978692,58.279933 L108,58.279933 L108,70 L64,70 Z M115,23.7308 C117.285554,23.064644 120.238184,22.442604 123.849141,21.86468 C127.462285,21.288962 131.254774,21 135.228795,21 C139.261869,21 142.616932,21.531602 145.298357,22.592599 C147.975408,23.655803 150.099114,25.157963 151.665102,27.101287 C153.228902,29.044612 154.342153,31.351895 155.007042,34.023139 C155.667556,36.696588 156,39.670028 156,42.947871 L156,70 L142.542569,70 L142.542569,44.588998 C142.542569,40.21707 141.971727,37.117899 140.827857,35.2981 C139.683986,33.476096 137.54497,32.565094 134.415182,32.565094 C133.452843,32.565094 132.429265,32.611416 131.346634,32.701855 C130.261816,32.792293 129.29729,32.900378 128.455244,33.019492 L128.455244,70 L115,70 L115,23.7308 Z M159,46.363934 C159,42.149727 159.653005,38.464481 160.961222,35.306011 C162.265026,32.147541 163.981371,29.515847 166.10805,27.410929 C168.230317,25.303825 170.674674,23.710383 173.438916,22.62623 C176.200951,21.544262 179.042406,21 181.956662,21 C188.758065,21 194.129915,23.063388 198.078831,27.183607 C202.025542,31.306011 204,37.367213 204,45.369399 C204,46.151913 203.969115,47.008743 203.907344,47.942077 C203.845573,48.873224 203.786008,49.701639 203.726444,50.422951 L172.938131,50.422951 C173.240367,53.19235 174.546377,55.386885 176.856162,57.013115 C179.161535,58.634973 182.258898,59.448087 186.146044,59.448087 C188.634523,59.448087 191.07888,59.222951 193.479116,58.770492 C195.877145,58.320219 197.83616,57.765027 199.353956,57.102732 L201.176194,68.022951 C200.445975,68.383607 199.475292,68.744262 198.261937,69.104918 C197.044171,69.465574 195.696245,69.782514 194.207128,70.053552 C192.720218,70.32459 191.125208,70.549727 189.424306,70.728962 C187.72561,70.910383 186.022502,71 184.323806,71 C180.010883,71 176.262722,70.368306 173.074909,69.104918 C169.884891,67.84153 167.244191,66.112568 165.148397,63.915847 C163.054809,61.719126 161.508334,59.118033 160.504559,56.108197 C159.50299,53.102732 159,49.852459 159,46.363934 Z M192,42 C191.938038,40.871223 191.738874,39.770504 191.406934,38.702158 C191.070568,37.631655 190.552742,36.682014 189.853455,35.848921 C189.151955,35.020144 188.268994,34.335971 187.20236,33.800719 C186.13794,33.265468 184.812392,33 183.227932,33 C181.705434,33 180.395377,33.252518 179.299975,33.755396 C178.20236,34.26259 177.290632,34.929496 176.558151,35.760432 C175.827883,36.593525 175.263585,37.558273 174.86747,38.656835 C174.471355,39.757554 174.183673,40.871223 174,42 L192,42 Z M238.734438,34.04722 C237.524821,33.744464 236.10665,33.424029 234.475533,33.088125 C232.842221,32.756641 231.090362,32.586479 229.217761,32.586479 C228.37037,32.586479 227.358332,32.663825 226.181644,32.814098 C225.002762,32.968791 224.10927,33.134533 223.505559,33.317954 L223.505559,70 L210,70 L210,24.557931 C212.417038,23.707121 215.270944,22.90272 218.566107,22.140306 C221.859075,21.380102 225.529637,21 229.579987,21 C230.30444,21 231.18037,21.046408 232.207776,21.137013 C233.235182,21.227619 234.262588,21.349163 235.289994,21.501646 C236.3174,21.654129 237.344806,21.83534 238.372212,22.04749 C239.397422,22.26185 240.275547,22.520408 241,22.823163 L238.734438,34.04722 Z M285,63.907926 C285,71.726381 283.038932,77.530224 279.118971,81.319456 C275.199009,85.104283 269.139701,87 260.941046,87 C258.066842,87 255.194812,86.742394 252.322783,86.227182 C249.450753,85.71197 246.787441,85.031625 244.332845,84.181745 L246.667863,72.818455 C248.761553,73.666133 250.961776,74.333267 253.266357,74.817654 C255.568763,75.302042 258.186419,75.544235 261.121499,75.544235 C264.950147,75.544235 267.656942,74.696557 269.244059,72.998999 C270.829002,71.301441 271.624735,69.121697 271.624735,66.453163 L271.624735,64.726982 C270.187633,65.394115 268.704874,65.893915 267.180807,66.226381 C265.654566,66.561049 263.993528,66.726181 262.197694,66.726181 C255.673122,66.726181 250.676964,64.773219 247.207048,60.86289 C243.732784,56.954764 242,51.485588 242,44.453163 C242,40.939151 242.539185,37.742194 243.615381,34.86229 C244.691576,31.984588 246.263475,29.514211 248.328901,27.453363 C250.392153,25.394716 252.920669,23.802842 255.91445,22.679944 C258.906057,21.559247 262.286834,21 266.05678,21 C267.674335,21 269.333199,21.07486 271.039893,21.226781 C272.744413,21.378703 274.435888,21.57466 276.112145,21.816853 C277.786227,22.059047 279.388563,22.347478 280.914804,22.679944 C282.441046,23.014612 283.802053,23.36249 285,23.725781 L285,63.907926 Z M255,45.593425 C255,53.198545 258.02585,57 264.077551,57 C265.45551,57 266.744218,56.818768 267.941497,56.454093 C269.140952,56.089419 270.157551,55.66286 271,55.174418 L271,33.457501 C270.338231,33.335943 269.561088,33.227645 268.662041,33.137029 C267.762993,33.046413 266.713741,33 265.516463,33 C261.981224,33 259.342857,34.18685 257.605714,36.560549 C255.866395,38.932038 255,41.94447 255,45.593425 Z M337,23 C334.234607,32.121368 331.346753,40.67156 328.336438,48.652757 C325.326124,56.636134 322.037488,64.375345 318.474985,71.876929 C317.183578,74.578022 315.894397,76.873625 314.607443,78.763736 C313.318262,80.653847 311.904394,82.21477 310.370291,83.444323 C308.836188,84.673877 307.103921,85.574241 305.169037,86.145417 C303.236379,86.714412 300.98087,87 298.404735,87 C296.253874,87 294.274458,86.803795 292.464261,86.415744 C290.654065,86.023333 289.16672,85.587322 288,85.109889 L290.389103,74.397077 C291.800745,74.87669 293.056527,75.208059 294.160903,75.389004 C295.263053,75.567769 296.429772,75.659332 297.656609,75.659332 C300.108057,75.659332 301.993956,75.011854 303.312083,73.723439 C304.630209,72.430664 305.75017,70.645195 306.669741,68.367033 C303.541419,62.36751 300.415322,55.628947 297.287,48.157884 C294.160903,40.686821 291.217385,32.302313 288.458672,23 L302.984778,23 C303.599309,25.339204 304.322943,27.874613 305.155678,30.606227 C305.986186,33.337841 306.863453,36.095616 307.787477,38.888272 C308.709274,41.676568 309.646658,44.392922 310.601854,47.032973 C311.55705,49.673025 312.465488,52.07327 313.327169,54.233709 C314.126505,52.07327 314.957014,49.673025 315.818694,47.032973 C316.682601,44.392922 317.526469,41.676568 318.356977,38.888272 C319.187486,36.095616 319.989049,33.337841 320.75944,30.606227 C321.525378,27.874613 322.21784,25.339204 322.834598,23 L337,23 Z M379,62.485636 L379,70 L342,70 L342,8 L350.6064,8 L350.6064,62.485636 L379,62.485636 Z M385,70 L385,23 L393,23 L393,70 L385,70 Z M389.5,14 C387.972346,14 386.673395,13.504268 385.603149,12.512805 C384.532903,11.521342 384,10.182648 384,8.501092 C384,6.817352 384.532903,5.480842 385.603149,4.487195 C386.673395,3.495732 387.972346,3 389.5,3 C391.027654,3 392.326605,3.495732 393.396851,4.487195 C394.467097,5.480842 395,6.817352 395,8.501092 C395,10.182648 394.467097,11.521342 393.396851,12.512805 C392.326605,13.504268 391.027654,14 389.5,14 Z M401,25.302198 C402.979125,24.830612 405.610461,24.329016 408.894008,23.797409 C412.173058,23.265803 415.949138,23 420.222248,23 C424.059051,23 427.245891,23.518745 429.787267,24.549804 C432.324145,25.583006 434.352748,27.027775 435.868577,28.886254 C437.384407,30.746876 438.452684,32.974049 439.07341,35.569917 C439.691886,38.165785 440,41.027456 440,44.152787 L440,70 L431.36382,70 L431.36382,45.923379 C431.36382,43.091718 431.163658,40.673766 430.761086,38.667381 C430.358515,36.660996 429.692809,35.038311 428.766219,33.799325 C427.83738,32.560339 426.598178,31.660038 425.050862,31.100566 C423.503547,30.538949 421.582896,30.260285 419.293409,30.260285 C418.36457,30.260285 417.404244,30.288151 416.414682,30.348171 C415.422871,30.406048 414.480537,30.481073 413.583184,30.568959 C412.683582,30.656846 411.878438,30.759737 411.167753,30.877634 C410.457067,30.997674 409.946543,31.085561 409.63618,31.143437 L409.63618,70 L401,70 L401,25.302198 Z M464.12981,44.200868 C465.952694,45.583783 467.881507,47.298773 469.916252,49.343653 C471.950996,51.388533 473.957051,53.597266 475.932209,55.974221 C477.905161,58.34899 479.772182,60.754346 481.53548,63.188103 C483.296571,65.624044 484.784009,67.896133 486,70 L476.066829,70 C474.791252,67.896133 473.319262,65.746387 471.648653,63.548578 C469.975837,61.355139 468.230195,59.251272 466.409518,57.234793 C464.586634,55.220499 462.732854,53.372242 460.850385,51.687837 C458.967915,50.005618 457.173721,48.592116 455.474423,47.447333 L455.474423,70 L447,70 L447,1.444087 L455.474423,0 L455.474423,42.75678 L460.303078,37.976655 C462.064169,36.233264 463.796571,34.459287 465.498076,32.654724 C467.197374,30.850161 468.808397,29.122062 470.326732,27.468244 C471.845066,25.814425 473.151539,24.35723 474.243945,23.092288 L484.177116,23.092288 C482.780161,24.597547 481.261827,26.249181 479.622114,28.053744 C477.980195,29.858307 476.278689,31.678162 474.517598,33.511126 C472.754301,35.346275 470.979968,37.181424 469.187981,39.012203 C467.393787,40.849537 465.709937,42.577635 464.12981,44.200868 Z"/>
    <path fill="#8492A6" d="M41.557333,115.688 L36.493333,115.688 L34.597333,131 L32.365333,131 L34.237333,115.688 L29.149333,115.688 L29.365333,113.804 L41.785333,113.804 L41.557333,115.688 Z M45.0039997,121.532 C45.6360029,120.587995 46.3379959,119.874002 47.1099997,119.39 C47.8820036,118.905998 48.6679957,118.664 49.4679997,118.664 C49.9880023,118.664 50.4439978,118.765999 50.8359997,118.97 C51.2280017,119.174001 51.5459985,119.471998 51.7899997,119.864 C52.0340009,120.256002 52.1999993,120.737997 52.2879997,121.31 C52.3760002,121.882003 52.3760002,122.531996 52.2879997,123.26 L51.3759997,131 L49.2399997,131 L50.1519997,123.26 C50.2720003,122.299995 50.2160009,121.588002 49.9839997,121.124 C49.7519986,120.659998 49.3200029,120.428 48.6879997,120.428 C48.3279979,120.428 47.9560016,120.525999 47.5719997,120.722 C47.1879978,120.918001 46.8180015,121.195998 46.4619997,121.556 C46.1059979,121.916002 45.7700013,122.351997 45.4539997,122.864 C45.1379981,123.376003 44.8640009,123.947997 44.6319997,124.58 L43.8519997,131 L41.7279997,131 L43.8639997,113.324 L45.9999997,113.324 L45.0039997,121.532 Z M60.8826664,120.212 C60.3786639,120.212 59.9146685,120.315999 59.4906664,120.524 C59.0666643,120.732001 58.690668,121.017998 58.3626664,121.382 C58.0346648,121.746002 57.7546676,122.173998 57.5226664,122.666 C57.2906652,123.158002 57.110667,123.687997 56.9826664,124.256 C58.2146726,124.103999 59.2026627,123.930001 59.9466664,123.734 C60.6906701,123.537999 61.2626644,123.326001 61.6626664,123.098 C62.0626684,122.869999 62.3266658,122.624001 62.4546664,122.36 C62.582667,122.095999 62.6466664,121.820001 62.6466664,121.532 C62.6466664,121.387999 62.6146667,121.238001 62.5506664,121.082 C62.4866661,120.925999 62.3846671,120.784001 62.2446664,120.656 C62.1046657,120.527999 61.9226675,120.422 61.6986664,120.338 C61.4746653,120.254 61.202668,120.212 60.8826664,120.212 Z M64.2666664,128.756 C63.8586644,129.180002 63.4586684,129.541999 63.0666664,129.842 C62.6746644,130.142001 62.2766684,130.391999 61.8726664,130.592 C61.4686644,130.792001 61.0446686,130.938 60.6006664,131.03 C60.1566642,131.122 59.678669,131.168 59.1666664,131.168 C58.4706629,131.168 57.8466692,131.052001 57.2946664,130.82 C56.7426636,130.587999 56.2746683,130.258002 55.8906664,129.83 C55.5066645,129.401998 55.2106674,128.884003 55.0026664,128.276 C54.7946654,127.667997 54.6906664,126.988004 54.6906664,126.236 C54.6906664,125.611997 54.7566657,124.990003 54.8886664,124.37 C55.0206671,123.749997 55.2126651,123.160003 55.4646664,122.6 C55.7166677,122.039997 56.0246646,121.520002 56.3886664,121.04 C56.7526682,120.559998 57.1686641,120.146002 57.6366664,119.798 C58.1046687,119.449998 58.6206636,119.176001 59.1846664,118.976 C59.7486692,118.775999 60.3546632,118.676 61.0026664,118.676 C61.6186695,118.676 62.1506642,118.763999 62.5986664,118.94 C63.0466686,119.116001 63.414665,119.339999 63.7026664,119.612 C63.9906678,119.884001 64.2046657,120.183998 64.3446664,120.512 C64.4846671,120.840002 64.5546664,121.151999 64.5546664,121.448 C64.5546664,121.976003 64.4466675,122.461998 64.2306664,122.906 C64.0146653,123.350002 63.6186693,123.749998 63.0426664,124.106 C62.4666635,124.462002 61.6746714,124.771999 60.6666664,125.036 C59.6586614,125.300001 58.3626743,125.511999 56.7786664,125.672 C56.7786664,125.76 56.7766664,125.846 56.7726664,125.93 C56.7686664,126.014 56.7666664,126.1 56.7666664,126.188 C56.7666664,127.260005 57.0006641,128.077997 57.4686664,128.642 C57.9366687,129.206003 58.6426617,129.488 59.5866664,129.488 C59.9706683,129.488 60.3126649,129.448 60.6126664,129.368 C60.9126679,129.288 61.1806652,129.190001 61.4166664,129.074 C61.6526676,128.957999 61.8606655,128.830001 62.0406664,128.69 C62.2206673,128.549999 62.3846657,128.422001 62.5326664,128.306 C62.6806671,128.189999 62.8186658,128.092 62.9466664,128.012 C63.074667,127.932 63.2026658,127.892 63.3306664,127.892 C63.4826672,127.892 63.6186658,127.959999 63.7386664,128.096 L64.2666664,128.756 Z M69.5013331,122.228 C69.8213347,121.547997 70.1673312,120.958002 70.5393331,120.458 C70.9113349,119.957998 71.301331,119.566001 71.7093331,119.282 C72.1173351,118.997999 72.5373309,118.826 72.9693331,118.766 C73.4013352,118.706 73.8413308,118.771999 74.2893331,118.964 L73.9053331,121.016 C72.8653279,120.599998 71.9473371,120.751996 71.1513331,121.472 C70.3553291,122.192004 69.7093356,123.491991 69.2133331,125.372 L68.5413331,131 L66.4533331,131 L67.9173331,118.832 L68.9733331,118.832 C69.4613355,118.832 69.7053331,119.071998 69.7053331,119.552 L69.5013331,122.228 Z M80.6639998,120.212 C80.1599973,120.212 79.6960019,120.315999 79.2719998,120.524 C78.8479977,120.732001 78.4720014,121.017998 78.1439998,121.382 C77.8159981,121.746002 77.5360009,122.173998 77.3039998,122.666 C77.0719986,123.158002 76.8920004,123.687997 76.7639998,124.256 C77.9960059,124.103999 78.9839961,123.930001 79.7279998,123.734 C80.4720035,123.537999 81.0439978,123.326001 81.4439998,123.098 C81.8440018,122.869999 82.1079991,122.624001 82.2359998,122.36 C82.3640004,122.095999 82.4279998,121.820001 82.4279998,121.532 C82.4279998,121.387999 82.3960001,121.238001 82.3319998,121.082 C82.2679995,120.925999 82.1660005,120.784001 82.0259998,120.656 C81.8859991,120.527999 81.7040009,120.422 81.4799998,120.338 C81.2559987,120.254 80.9840014,120.212 80.6639998,120.212 Z M84.0479998,128.756 C83.6399977,129.180002 83.2400017,129.541999 82.8479998,129.842 C82.4559978,130.142001 82.0580018,130.391999 81.6539998,130.592 C81.2499978,130.792001 80.826002,130.938 80.3819998,131.03 C79.9379976,131.122 79.4600023,131.168 78.9479998,131.168 C78.2519963,131.168 77.6280025,131.052001 77.0759998,130.82 C76.523997,130.587999 76.0560017,130.258002 75.6719998,129.83 C75.2879979,129.401998 74.9920008,128.884003 74.7839998,128.276 C74.5759987,127.667997 74.4719998,126.988004 74.4719998,126.236 C74.4719998,125.611997 74.5379991,124.990003 74.6699998,124.37 C74.8020004,123.749997 74.9939985,123.160003 75.2459998,122.6 C75.498001,122.039997 75.805998,121.520002 76.1699998,121.04 C76.5340016,120.559998 76.9499974,120.146002 77.4179998,119.798 C77.8860021,119.449998 78.401997,119.176001 78.9659998,118.976 C79.5300026,118.775999 80.1359965,118.676 80.7839998,118.676 C81.4000029,118.676 81.9319975,118.763999 82.3799998,118.94 C82.828002,119.116001 83.1959983,119.339999 83.4839998,119.612 C83.7720012,119.884001 83.9859991,120.183998 84.1259998,120.512 C84.2660005,120.840002 84.3359998,121.151999 84.3359998,121.448 C84.3359998,121.976003 84.2280009,122.461998 84.0119998,122.906 C83.7959987,123.350002 83.4000027,123.749998 82.8239998,124.106 C82.2479969,124.462002 81.4560048,124.771999 80.4479998,125.036 C79.4399947,125.300001 78.1440077,125.511999 76.5599998,125.672 C76.5599998,125.76 76.5579998,125.846 76.5539998,125.93 C76.5499998,126.014 76.5479998,126.1 76.5479998,126.188 C76.5479998,127.260005 76.7819974,128.077997 77.2499998,128.642 C77.7180021,129.206003 78.4239951,129.488 79.3679998,129.488 C79.7520017,129.488 80.0939983,129.448 80.3939998,129.368 C80.6940013,129.288 80.9619986,129.190001 81.1979998,129.074 C81.434001,128.957999 81.6419989,128.830001 81.8219998,128.69 C82.0020007,128.549999 82.165999,128.422001 82.3139998,128.306 C82.4620005,128.189999 82.5999991,128.092 82.7279998,128.012 C82.8560004,127.932 82.9839991,127.892 83.1119998,127.892 C83.2640005,127.892 83.3999992,127.959999 83.5199998,128.096 L84.0479998,128.756 Z M89.5226665,112.964 C89.7706677,113.516003 89.9006664,114.065997 89.9126665,114.614 C89.9246665,115.162003 89.8366674,115.697997 89.6486665,116.222 C89.4606655,116.746003 89.1846683,117.249998 88.8206665,117.734 C88.4566646,118.218002 88.018669,118.667998 87.5066665,119.084 L86.9426665,118.712 C86.854666,118.648 86.8106665,118.560001 86.8106665,118.448 C86.8106665,118.384 86.8266663,118.324 86.8586665,118.268 C86.8906666,118.212 86.950666,118.136 87.0386665,118.04 C87.2146673,117.839999 87.3926656,117.598001 87.5726665,117.314 C87.7526674,117.029999 87.8946659,116.716002 87.9986665,116.372 C88.102667,116.027998 88.1526665,115.662002 88.1486665,115.274 C88.1446664,114.885998 88.0506674,114.488002 87.8666665,114.08 C87.8106662,113.951999 87.8126662,113.834001 87.8726665,113.726 C87.9326668,113.617999 88.0426657,113.532 88.2026665,113.468 L89.5226665,112.964 Z M98.0693331,120.788 C98.0053328,120.884 97.9413335,120.954 97.8773331,120.998 C97.8133328,121.042 97.7333336,121.064 97.6373331,121.064 C97.5253326,121.064 97.4033338,121.02 97.2713331,120.932 C97.1393325,120.844 96.9793341,120.746001 96.7913331,120.638 C96.6033322,120.529999 96.3733345,120.43 96.1013331,120.338 C95.8293318,120.246 95.5013351,120.2 95.1173331,120.2 C94.7573313,120.2 94.4293346,120.25 94.1333331,120.35 C93.8373317,120.450001 93.5833342,120.587999 93.3713331,120.764 C93.1593321,120.940001 92.9953337,121.145999 92.8793331,121.382 C92.7633326,121.618001 92.7053331,121.867999 92.7053331,122.132 C92.7053331,122.508002 92.8293319,122.807999 93.0773331,123.032 C93.3253344,123.256001 93.6373313,123.449999 94.0133331,123.614 C94.389335,123.778001 94.793331,123.935999 95.2253331,124.088 C95.6573353,124.240001 96.0613313,124.431999 96.4373331,124.664 C96.813335,124.896001 97.1253319,125.191998 97.3733331,125.552 C97.6213344,125.912002 97.7453331,126.379997 97.7453331,126.956 C97.7453331,127.516003 97.6353342,128.051997 97.4153331,128.564 C97.195332,129.076003 96.8793352,129.525998 96.4673331,129.914 C96.0553311,130.302002 95.559336,130.611999 94.9793331,130.844 C94.3993302,131.076001 93.7493367,131.192 93.0293331,131.192 C92.2533293,131.192 91.5673361,131.054001 90.9713331,130.778 C90.3753302,130.501999 89.889335,130.148002 89.5133331,129.716 L90.0413331,128.9 C90.1133335,128.795999 90.1913327,128.716 90.2753331,128.66 C90.3593336,128.604 90.4693325,128.576 90.6053331,128.576 C90.7333338,128.576 90.8613325,128.631999 90.9893331,128.744 C91.1173338,128.856001 91.2773322,128.981999 91.4693331,129.122 C91.6613341,129.262001 91.9033317,129.387999 92.1953331,129.5 C92.4873346,129.612001 92.8573309,129.668 93.3053331,129.668 C93.6973351,129.668 94.0513316,129.608001 94.3673331,129.488 C94.6833347,129.367999 94.951332,129.208001 95.1713331,129.008 C95.3913342,128.807999 95.5593326,128.574001 95.6753331,128.306 C95.7913337,128.037999 95.8493331,127.752002 95.8493331,127.448 C95.8493331,127.039998 95.7253344,126.716001 95.4773331,126.476 C95.2293319,126.235999 94.917335,126.036001 94.5413331,125.876 C94.1653313,125.715999 93.7613353,125.566001 93.3293331,125.426 C92.897331,125.285999 92.493335,125.106001 92.1173331,124.886 C91.7413313,124.665999 91.4293344,124.380002 91.1813331,124.028 C90.9333319,123.675998 90.8093331,123.208003 90.8093331,122.624 C90.8093331,122.111997 90.9113321,121.618002 91.1153331,121.142 C91.3193342,120.665998 91.6133312,120.244002 91.9973331,119.876 C92.3813351,119.507998 92.8473304,119.214001 93.3953331,118.994 C93.9433359,118.773999 94.5613297,118.664 95.2493331,118.664 C95.9773368,118.664 96.6193304,118.785999 97.1753331,119.03 C97.7313359,119.274001 98.2093311,119.603998 98.6093331,120.02 L98.0693331,120.788 Z M105.982666,131 L107.446666,118.832 L108.502666,118.832 C108.990669,118.832 109.234666,119.071998 109.234666,119.552 L109.066666,121.712 C109.666669,120.711995 110.324663,119.954003 111.040666,119.438 C111.75667,118.921997 112.506663,118.664 113.290666,118.664 C114.114671,118.664 114.722665,118.945997 115.114666,119.51 C115.506668,120.074003 115.702666,120.879995 115.702666,121.928 C116.302669,120.815994 116.980663,119.994003 117.736666,119.462 C118.49267,118.929997 119.290662,118.664 120.130666,118.664 C121.170672,118.664 121.906664,119.063996 122.338666,119.864 C122.770669,120.664004 122.898667,121.795993 122.722666,123.26 L121.810666,131 L119.698666,131 L120.622666,123.26 C120.734667,122.307995 120.704667,121.600002 120.532666,121.136 C120.360666,120.671998 119.974669,120.44 119.374666,120.44 C119.030665,120.44 118.688668,120.525999 118.348666,120.698 C118.008665,120.870001 117.678668,121.121998 117.358666,121.454 C117.038665,121.786002 116.740668,122.197998 116.464666,122.69 C116.188665,123.182002 115.942668,123.747997 115.726666,124.388 L115.726666,124.4 L114.946666,131 L112.834666,131 L113.746666,123.26 C113.866667,122.307995 113.850667,121.600002 113.698666,121.136 C113.546666,120.671998 113.170669,120.44 112.570666,120.44 C112.186665,120.44 111.816668,120.535999 111.460666,120.728 C111.104665,120.920001 110.768668,121.197998 110.452666,121.562 C110.136665,121.926002 109.842668,122.369997 109.570666,122.894 C109.298665,123.418003 109.050668,124.007997 108.826666,124.664 L108.070666,131 L105.982666,131 Z M129.865333,129.5 C130.449336,129.5 130.979331,129.340002 131.455333,129.02 C131.931336,128.699998 132.339331,128.274003 132.679333,127.742 C133.019335,127.209997 133.281332,126.596003 133.465333,125.9 C133.649334,125.203997 133.741333,124.476004 133.741333,123.716 C133.741333,122.595994 133.519335,121.754003 133.075333,121.19 C132.631331,120.625997 131.993337,120.344 131.161333,120.344 C130.56933,120.344 130.035336,120.501998 129.559333,120.818 C129.083331,121.134002 128.677335,121.555997 128.341333,122.084 C128.005331,122.612003 127.745334,123.223997 127.561333,123.92 C127.377332,124.616003 127.285333,125.343996 127.285333,126.104 C127.285333,127.224006 127.505331,128.069997 127.945333,128.642 C128.385335,129.214003 129.025329,129.5 129.865333,129.5 Z M129.661333,131.168 C128.99733,131.168 128.389336,131.054001 127.837333,130.826 C127.28533,130.597999 126.809335,130.268002 126.409333,129.836 C126.009331,129.403998 125.697334,128.876003 125.473333,128.252 C125.249332,127.627997 125.137333,126.916004 125.137333,126.116 C125.137333,125.091995 125.297332,124.128005 125.617333,123.224 C125.937335,122.319995 126.37733,121.530003 126.937333,120.854 C127.497336,120.177997 128.155329,119.644002 128.911333,119.252 C129.667337,118.859998 130.481329,118.664 131.353333,118.664 C132.017336,118.664 132.62533,118.777999 133.177333,119.006 C133.729336,119.234001 134.205331,119.563998 134.605333,119.996 C135.005335,120.428002 135.317332,120.955997 135.541333,121.58 C135.765334,122.204003 135.877333,122.911996 135.877333,123.704 C135.877333,124.720005 135.717335,125.679995 135.397333,126.584 C135.077332,127.488005 134.639336,128.279997 134.083333,128.96 C133.52733,129.640003 132.869337,130.177998 132.109333,130.574 C131.349329,130.970002 130.533338,131.168 129.661333,131.168 Z M140.908,122.228 C141.228001,121.547997 141.573998,120.958002 141.946,120.458 C142.318002,119.957998 142.707998,119.566001 143.116,119.282 C143.524002,118.997999 143.943998,118.826 144.376,118.766 C144.808002,118.706 145.247998,118.771999 145.696,118.964 L145.312,121.016 C144.271995,120.599998 143.354004,120.751996 142.558,121.472 C141.761996,122.192004 141.116002,123.491991 140.62,125.372 L139.948,131 L137.86,131 L139.324,118.832 L140.38,118.832 C140.868002,118.832 141.112,119.071998 141.112,119.552 L140.908,122.228 Z M152.070667,120.212 C151.566664,120.212 151.102669,120.315999 150.678667,120.524 C150.254664,120.732001 149.878668,121.017998 149.550667,121.382 C149.222665,121.746002 148.942668,122.173998 148.710667,122.666 C148.478665,123.158002 148.298667,123.687997 148.170667,124.256 C149.402673,124.103999 150.390663,123.930001 151.134667,123.734 C151.87867,123.537999 152.450665,123.326001 152.850667,123.098 C153.250669,122.869999 153.514666,122.624001 153.642667,122.36 C153.770667,122.095999 153.834667,121.820001 153.834667,121.532 C153.834667,121.387999 153.802667,121.238001 153.738667,121.082 C153.674666,120.925999 153.572667,120.784001 153.432667,120.656 C153.292666,120.527999 153.110668,120.422 152.886667,120.338 C152.662665,120.254 152.390668,120.212 152.070667,120.212 Z M155.454667,128.756 C155.046664,129.180002 154.646668,129.541999 154.254667,129.842 C153.862665,130.142001 153.464669,130.391999 153.060667,130.592 C152.656665,130.792001 152.232669,130.938 151.788667,131.03 C151.344664,131.122 150.866669,131.168 150.354667,131.168 C149.658663,131.168 149.034669,131.052001 148.482667,130.82 C147.930664,130.587999 147.462668,130.258002 147.078667,129.83 C146.694665,129.401998 146.398668,128.884003 146.190667,128.276 C145.982665,127.667997 145.878667,126.988004 145.878667,126.236 C145.878667,125.611997 145.944666,124.990003 146.076667,124.37 C146.208667,123.749997 146.400665,123.160003 146.652667,122.6 C146.904668,122.039997 147.212665,121.520002 147.576667,121.04 C147.940668,120.559998 148.356664,120.146002 148.824667,119.798 C149.292669,119.449998 149.808664,119.176001 150.372667,118.976 C150.936669,118.775999 151.542663,118.676 152.190667,118.676 C152.80667,118.676 153.338664,118.763999 153.786667,118.94 C154.234669,119.116001 154.602665,119.339999 154.890667,119.612 C155.178668,119.884001 155.392666,120.183998 155.532667,120.512 C155.672667,120.840002 155.742667,121.151999 155.742667,121.448 C155.742667,121.976003 155.634668,122.461998 155.418667,122.906 C155.202665,123.350002 154.806669,123.749998 154.230667,124.106 C153.654664,124.462002 152.862672,124.771999 151.854667,125.036 C150.846661,125.300001 149.550674,125.511999 147.966667,125.672 C147.966667,125.76 147.964667,125.846 147.960667,125.93 C147.956667,126.014 147.954667,126.1 147.954667,126.188 C147.954667,127.260005 148.188664,128.077997 148.656667,128.642 C149.124669,129.206003 149.830662,129.488 150.774667,129.488 C151.158668,129.488 151.500665,129.448 151.800667,129.368 C152.100668,129.288 152.368665,129.190001 152.604667,129.074 C152.840668,128.957999 153.048666,128.830001 153.228667,128.69 C153.408667,128.549999 153.572666,128.422001 153.720667,128.306 C153.868667,128.189999 154.006666,128.092 154.134667,128.012 C154.262667,127.932 154.390666,127.892 154.518667,127.892 C154.670667,127.892 154.806666,127.959999 154.926667,128.096 L155.454667,128.756 Z M164.304,128.708 L164.304,128.522 C164.304,128.446 164.31,128.336001 164.322,128.192 C164.334,128.047999 164.354,127.860001 164.382,127.628 C164.41,127.395999 164.448,127.092002 164.496,126.716 L165.24,120.632 L163.884,120.632 C163.771999,120.632 163.682,120.594 163.614,120.518 C163.546,120.442 163.52,120.324001 163.536,120.164 L163.632,119.312 L165.504,119.06 L166.416,115.304 C166.456,115.183999 166.517999,115.086 166.602,115.01 C166.686,114.934 166.791999,114.896 166.92,114.896 L168.036,114.896 L167.52,119.084 L170.712,119.084 L170.532,120.632 L167.328,120.632 L166.596,126.608 C166.556,126.936002 166.524,127.199999 166.5,127.4 C166.476,127.600001 166.458,127.759999 166.446,127.88 C166.434,128.000001 166.426,128.084 166.422,128.132 C166.418,128.18 166.416,128.216 166.416,128.24 C166.416,128.648002 166.511999,128.949999 166.704,129.146 C166.896001,129.342001 167.151998,129.44 167.472,129.44 C167.688001,129.44 167.873999,129.41 168.03,129.35 C168.186001,129.29 168.323999,129.224 168.444,129.152 C168.564,129.08 168.663999,129.014 168.744,128.954 C168.824,128.894 168.892,128.864 168.948,128.864 C169.02,128.864 169.074,128.88 169.11,128.912 C169.146,128.944 169.18,128.996 169.212,129.068 L169.668,130.088 C169.275998,130.432002 168.830002,130.701999 168.33,130.898 C167.829997,131.094001 167.328002,131.192 166.824,131.192 C166.047996,131.192 165.438002,130.980002 164.994,130.556 C164.549998,130.131998 164.32,129.516004 164.304,128.708 Z M175.394667,121.532 C176.02667,120.587995 176.728663,119.874002 177.500667,119.39 C178.27267,118.905998 179.058663,118.664 179.858667,118.664 C180.378669,118.664 180.834665,118.765999 181.226667,118.97 C181.618669,119.174001 181.936665,119.471998 182.180667,119.864 C182.424668,120.256002 182.590666,120.737997 182.678667,121.31 C182.766667,121.882003 182.766667,122.531996 182.678667,123.26 L181.766667,131 L179.630667,131 L180.542667,123.26 C180.662667,122.299995 180.606668,121.588002 180.374667,121.124 C180.142665,120.659998 179.71067,120.428 179.078667,120.428 C178.718665,120.428 178.346668,120.525999 177.962667,120.722 C177.578665,120.918001 177.208668,121.195998 176.852667,121.556 C176.496665,121.916002 176.160668,122.351997 175.844667,122.864 C175.528665,123.376003 175.254668,123.947997 175.022667,124.58 L174.242667,131 L172.118667,131 L174.254667,113.324 L176.390667,113.324 L175.394667,121.532 Z M193.421333,120.332 C193.245332,120.292 193.071334,120.266 192.899333,120.254 C192.727332,120.242 192.557334,120.236 192.389333,120.236 C191.909331,120.236 191.445335,120.313999 190.997333,120.47 C190.549331,120.626001 190.129335,120.843999 189.737333,121.124 C189.345331,121.404001 188.989335,121.737998 188.669333,122.126 C188.349332,122.514002 188.075334,122.939998 187.847333,123.404 C187.619332,123.868002 187.441334,124.361997 187.313333,124.886 C187.185333,125.410003 187.121333,125.947997 187.121333,126.5 C187.121333,128.42801 187.737327,129.392 188.969333,129.392 C189.361335,129.392 189.745331,129.270001 190.121333,129.026 C190.497335,128.781999 190.855332,128.442002 191.195333,128.006 C191.535335,127.569998 191.849332,127.054003 192.137333,126.458 C192.425335,125.861997 192.681332,125.208004 192.905333,124.496 L193.421333,120.332 Z M192.605333,127.796 C192.317332,128.308003 192.007335,128.771998 191.675333,129.188 C191.343332,129.604002 190.991335,129.957999 190.619333,130.25 C190.247331,130.542001 189.855335,130.767999 189.443333,130.928 C189.031331,131.088001 188.605335,131.168 188.165333,131.168 C187.685331,131.168 187.249335,131.074001 186.857333,130.886 C186.465331,130.697999 186.131335,130.422002 185.855333,130.058 C185.579332,129.693998 185.365334,129.246003 185.213333,128.714 C185.061332,128.181997 184.985333,127.572003 184.985333,126.884 C184.985333,126.163996 185.075332,125.462003 185.255333,124.778 C185.435334,124.093997 185.691332,123.448003 186.023333,122.84 C186.355335,122.231997 186.753331,121.674003 187.217333,121.166 C187.681336,120.657997 188.19933,120.218002 188.771333,119.846 C189.343336,119.473998 189.95733,119.186001 190.613333,118.982 C191.269337,118.777999 191.95733,118.676 192.677333,118.676 C193.197336,118.676 193.703331,118.718 194.195333,118.802 C194.687336,118.886 195.173331,119.031999 195.653333,119.24 L194.201333,131 L193.097333,131 C192.817332,131 192.627334,130.928001 192.527333,130.784 C192.427333,130.639999 192.377333,130.464001 192.377333,130.256 L192.605333,127.796 Z M200.684,121.916 C201.332003,120.843995 202.063996,120.034003 202.88,119.486 C203.696004,118.937997 204.535996,118.664 205.4,118.664 C205.912002,118.664 206.361998,118.765999 206.75,118.97 C207.138002,119.174001 207.453999,119.471998 207.698,119.864 C207.942001,120.256002 208.107999,120.737997 208.196,121.31 C208.284,121.882003 208.284,122.531996 208.196,123.26 L207.284,131 L205.16,131 L206.072,123.26 C206.184,122.299995 206.124001,121.590002 205.892,121.13 C205.659999,120.669998 205.232003,120.44 204.608,120.44 C204.223998,120.44 203.834002,120.543999 203.438,120.752 C203.041998,120.960001 202.660002,121.255998 202.292,121.64 C201.923998,122.024002 201.582002,122.485997 201.266,123.026 C200.949998,123.566003 200.680001,124.167997 200.456,124.832 L199.76,131 L197.624,131 L199.088,118.832 L200.144,118.832 C200.624002,118.832 200.864,119.071998 200.864,119.552 L200.684,121.916 Z M221.221333,129.5 C221.805336,129.5 222.335331,129.340002 222.811333,129.02 C223.287336,128.699998 223.695332,128.274003 224.035333,127.742 C224.375335,127.209997 224.637332,126.596003 224.821333,125.9 C225.005334,125.203997 225.097333,124.476004 225.097333,123.716 C225.097333,122.595994 224.875336,121.754003 224.431333,121.19 C223.987331,120.625997 223.349337,120.344 222.517333,120.344 C221.92533,120.344 221.391336,120.501998 220.915333,120.818 C220.439331,121.134002 220.033335,121.555997 219.697333,122.084 C219.361332,122.612003 219.101334,123.223997 218.917333,123.92 C218.733332,124.616003 218.641333,125.343996 218.641333,126.104 C218.641333,127.224006 218.861331,128.069997 219.301333,128.642 C219.741335,129.214003 220.381329,129.5 221.221333,129.5 Z M221.017333,131.168 C220.35333,131.168 219.745336,131.054001 219.193333,130.826 C218.641331,130.597999 218.165335,130.268002 217.765333,129.836 C217.365331,129.403998 217.053334,128.876003 216.829333,128.252 C216.605332,127.627997 216.493333,126.916004 216.493333,126.116 C216.493333,125.091995 216.653332,124.128005 216.973333,123.224 C217.293335,122.319995 217.73333,121.530003 218.293333,120.854 C218.853336,120.177997 219.51133,119.644002 220.267333,119.252 C221.023337,118.859998 221.837329,118.664 222.709333,118.664 C223.373337,118.664 223.981331,118.777999 224.533333,119.006 C225.085336,119.234001 225.561331,119.563998 225.961333,119.996 C226.361335,120.428002 226.673332,120.955997 226.897333,121.58 C227.121334,122.204003 227.233333,122.911996 227.233333,123.704 C227.233333,124.720005 227.073335,125.679995 226.753333,126.584 C226.433332,127.488005 225.995336,128.279997 225.439333,128.96 C224.883331,129.640003 224.225337,130.177998 223.465333,130.574 C222.705329,130.970002 221.889338,131.168 221.017333,131.168 Z M232.276,121.916 C232.924003,120.843995 233.655996,120.034003 234.472,119.486 C235.288004,118.937997 236.127996,118.664 236.992,118.664 C237.504003,118.664 237.953998,118.765999 238.342,118.97 C238.730002,119.174001 239.045999,119.471998 239.29,119.864 C239.534001,120.256002 239.7,120.737997 239.788,121.31 C239.876,121.882003 239.876,122.531996 239.788,123.26 L238.876,131 L236.752,131 L237.664,123.26 C237.776001,122.299995 237.716001,121.590002 237.484,121.13 C237.251999,120.669998 236.824003,120.44 236.2,120.44 C235.815998,120.44 235.426002,120.543999 235.03,120.752 C234.633998,120.960001 234.252002,121.255998 233.884,121.64 C233.515998,122.024002 233.174002,122.485997 232.858,123.026 C232.541998,123.566003 232.272001,124.167997 232.048,124.832 L231.352,131 L229.216,131 L230.68,118.832 L231.736,118.832 C232.216002,118.832 232.456,119.071998 232.456,119.552 L232.276,121.916 Z M248.382667,120.212 C247.878664,120.212 247.414669,120.315999 246.990667,120.524 C246.566665,120.732001 246.190668,121.017998 245.862667,121.382 C245.534665,121.746002 245.254668,122.173998 245.022667,122.666 C244.790665,123.158002 244.610667,123.687997 244.482667,124.256 C245.714673,124.103999 246.702663,123.930001 247.446667,123.734 C248.19067,123.537999 248.762665,123.326001 249.162667,123.098 C249.562669,122.869999 249.826666,122.624001 249.954667,122.36 C250.082667,122.095999 250.146667,121.820001 250.146667,121.532 C250.146667,121.387999 250.114667,121.238001 250.050667,121.082 C249.986666,120.925999 249.884667,120.784001 249.744667,120.656 C249.604666,120.527999 249.422668,120.422 249.198667,120.338 C248.974666,120.254 248.702668,120.212 248.382667,120.212 Z M251.766667,128.756 C251.358665,129.180002 250.958669,129.541999 250.566667,129.842 C250.174665,130.142001 249.776669,130.391999 249.372667,130.592 C248.968665,130.792001 248.544669,130.938 248.100667,131.03 C247.656664,131.122 247.178669,131.168 246.666667,131.168 C245.970663,131.168 245.346669,131.052001 244.794667,130.82 C244.242664,130.587999 243.774669,130.258002 243.390667,129.83 C243.006665,129.401998 242.710668,128.884003 242.502667,128.276 C242.294666,127.667997 242.190667,126.988004 242.190667,126.236 C242.190667,125.611997 242.256666,124.990003 242.388667,124.37 C242.520667,123.749997 242.712665,123.160003 242.964667,122.6 C243.216668,122.039997 243.524665,121.520002 243.888667,121.04 C244.252668,120.559998 244.668664,120.146002 245.136667,119.798 C245.604669,119.449998 246.120664,119.176001 246.684667,118.976 C247.248669,118.775999 247.854663,118.676 248.502667,118.676 C249.11867,118.676 249.650664,118.763999 250.098667,118.94 C250.546669,119.116001 250.914665,119.339999 251.202667,119.612 C251.490668,119.884001 251.704666,120.183998 251.844667,120.512 C251.984667,120.840002 252.054667,121.151999 252.054667,121.448 C252.054667,121.976003 251.946668,122.461998 251.730667,122.906 C251.514666,123.350002 251.11867,123.749998 250.542667,124.106 C249.966664,124.462002 249.174672,124.771999 248.166667,125.036 C247.158662,125.300001 245.862675,125.511999 244.278667,125.672 C244.278667,125.76 244.276667,125.846 244.272667,125.93 C244.268667,126.014 244.266667,126.1 244.266667,126.188 C244.266667,127.260005 244.500664,128.077997 244.968667,128.642 C245.436669,129.206003 246.142662,129.488 247.086667,129.488 C247.470669,129.488 247.812665,129.448 248.112667,129.368 C248.412668,129.288 248.680665,129.190001 248.916667,129.074 C249.152668,128.957999 249.360666,128.830001 249.540667,128.69 C249.720668,128.549999 249.884666,128.422001 250.032667,128.306 C250.180667,128.189999 250.318666,128.092 250.446667,128.012 C250.574667,127.932 250.702666,127.892 250.830667,127.892 C250.982667,127.892 251.118666,127.959999 251.238667,128.096 L251.766667,128.756 Z M276.456,118.844 L271.356,131 L269.736,131 C269.543999,131 269.424,130.864001 269.376,130.592 L267.9,122.348 C267.884,122.211999 267.87,122.082001 267.858,121.958 C267.846,121.833999 267.832,121.704001 267.816,121.568 C267.728,121.832001 267.632001,122.095999 267.528,122.36 L264.024,130.592 C263.911999,130.864001 263.748001,131 263.532,131 L261.972,131 L259.836,118.844 L261.432,118.844 C261.592001,118.844 261.72,118.884 261.816,118.964 C261.912001,119.044 261.976,119.151999 262.008,119.288 L263.124,127.112 C263.14,127.392001 263.156,127.663999 263.172,127.928 C263.188,128.192001 263.2,128.451999 263.208,128.708 C263.296,128.451999 263.392,128.192001 263.496,127.928 C263.600001,127.663999 263.707999,127.392001 263.82,127.112 L267.144,119.24 C267.184,119.119999 267.259999,119.02 267.372,118.94 C267.484001,118.86 267.607999,118.82 267.744,118.82 L268.632,118.82 C268.784001,118.82 268.904,118.86 268.992,118.94 C269.08,119.02 269.132,119.119999 269.148,119.24 L270.516,127.112 C270.556,127.392001 270.592,127.661999 270.624,127.922 C270.656,128.182001 270.684,128.443999 270.708,128.708 C270.78,128.451999 270.858,128.192001 270.942,127.928 C271.026,127.663999 271.116,127.392001 271.212,127.112 L274.296,119.288 C274.336,119.159999 274.413999,119.054 274.53,118.97 C274.646001,118.886 274.771999,118.844 274.908,118.844 L276.456,118.844 Z M285.302667,120.332 C285.126666,120.292 284.952668,120.266 284.780667,120.254 C284.608666,120.242 284.438668,120.236 284.270667,120.236 C283.790664,120.236 283.326669,120.313999 282.878667,120.47 C282.430664,120.626001 282.010669,120.843999 281.618667,121.124 C281.226665,121.404001 280.870668,121.737998 280.550667,122.126 C280.230665,122.514002 279.956668,122.939998 279.728667,123.404 C279.500666,123.868002 279.322667,124.361997 279.194667,124.886 C279.066666,125.410003 279.002667,125.947997 279.002667,126.5 C279.002667,128.42801 279.618661,129.392 280.850667,129.392 C281.242669,129.392 281.626665,129.270001 282.002667,129.026 C282.378669,128.781999 282.736665,128.442002 283.076667,128.006 C283.416668,127.569998 283.730665,127.054003 284.018667,126.458 C284.306668,125.861997 284.562666,125.208004 284.786667,124.496 L285.302667,120.332 Z M284.486667,127.796 C284.198665,128.308003 283.888668,128.771998 283.556667,129.188 C283.224665,129.604002 282.872669,129.957999 282.500667,130.25 C282.128665,130.542001 281.736669,130.767999 281.324667,130.928 C280.912665,131.088001 280.486669,131.168 280.046667,131.168 C279.566664,131.168 279.130669,131.074001 278.738667,130.886 C278.346665,130.697999 278.012668,130.422002 277.736667,130.058 C277.460665,129.693998 277.246667,129.246003 277.094667,128.714 C276.942666,128.181997 276.866667,127.572003 276.866667,126.884 C276.866667,126.163996 276.956666,125.462003 277.136667,124.778 C277.316668,124.093997 277.572665,123.448003 277.904667,122.84 C278.236668,122.231997 278.634664,121.674003 279.098667,121.166 C279.562669,120.657997 280.080664,120.218002 280.652667,119.846 C281.22467,119.473998 281.838663,119.186001 282.494667,118.982 C283.15067,118.777999 283.838663,118.676 284.558667,118.676 C285.078669,118.676 285.584664,118.718 286.076667,118.802 C286.568669,118.886 287.054664,119.031999 287.534667,119.24 L286.082667,131 L284.978667,131 C284.698665,131 284.508667,130.928001 284.408667,130.784 C284.308666,130.639999 284.258667,130.464001 284.258667,130.256 L284.486667,127.796 Z M300.701333,118.844 L292.493333,134.624 C292.405333,134.792001 292.303334,134.916 292.187333,134.996 C292.071333,135.076 291.925334,135.116 291.749333,135.116 L290.177333,135.116 L292.817333,130.28 L289.661333,118.844 L291.425333,118.844 C291.601334,118.844 291.729333,118.886 291.809333,118.97 C291.889334,119.054 291.949333,119.159999 291.989333,119.288 L293.945333,126.944 C293.985334,127.112001 294.017333,127.279999 294.041333,127.448 C294.065334,127.616001 294.085333,127.783999 294.101333,127.952 C294.173334,127.783999 294.245333,127.614001 294.317333,127.442 C294.389334,127.269999 294.465333,127.100001 294.545333,126.932 L298.385333,119.264 C298.449334,119.135999 298.539333,119.034 298.655333,118.958 C298.771334,118.882 298.889333,118.844 299.009333,118.844 L300.701333,118.844 Z M307.414667,128.708 L307.414667,128.522 C307.414667,128.446 307.420667,128.336001 307.432667,128.192 C307.444667,128.047999 307.464667,127.860001 307.492667,127.628 C307.520667,127.395999 307.558667,127.092002 307.606667,126.716 L308.350667,120.632 L306.994667,120.632 C306.882666,120.632 306.792667,120.594 306.724667,120.518 C306.656666,120.442 306.630667,120.324001 306.646667,120.164 L306.742667,119.312 L308.614667,119.06 L309.526667,115.304 C309.566667,115.183999 309.628666,115.086 309.712667,115.01 C309.796667,114.934 309.902666,114.896 310.030667,114.896 L311.146667,114.896 L310.630667,119.084 L313.822667,119.084 L313.642667,120.632 L310.438667,120.632 L309.706667,126.608 C309.666667,126.936002 309.634667,127.199999 309.610667,127.4 C309.586667,127.600001 309.568667,127.759999 309.556667,127.88 C309.544667,128.000001 309.536667,128.084 309.532667,128.132 C309.528667,128.18 309.526667,128.216 309.526667,128.24 C309.526667,128.648002 309.622666,128.949999 309.814667,129.146 C310.006668,129.342001 310.262665,129.44 310.582667,129.44 C310.798668,129.44 310.984666,129.41 311.140667,129.35 C311.296668,129.29 311.434666,129.224 311.554667,129.152 C311.674667,129.08 311.774666,129.014 311.854667,128.954 C311.934667,128.894 312.002666,128.864 312.058667,128.864 C312.130667,128.864 312.184667,128.88 312.220667,128.912 C312.256667,128.944 312.290667,128.996 312.322667,129.068 L312.778667,130.088 C312.386665,130.432002 311.940669,130.701999 311.440667,130.898 C310.940664,131.094001 310.438669,131.192 309.934667,131.192 C309.158663,131.192 308.548669,130.980002 308.104667,130.556 C307.660665,130.131998 307.430667,129.516004 307.414667,128.708 Z M319.693333,129.5 C320.277336,129.5 320.807331,129.340002 321.283333,129.02 C321.759336,128.699998 322.167332,128.274003 322.507333,127.742 C322.847335,127.209997 323.109333,126.596003 323.293333,125.9 C323.477334,125.203997 323.569333,124.476004 323.569333,123.716 C323.569333,122.595994 323.347336,121.754003 322.903333,121.19 C322.459331,120.625997 321.821338,120.344 320.989333,120.344 C320.39733,120.344 319.863336,120.501998 319.387333,120.818 C318.911331,121.134002 318.505335,121.555997 318.169333,122.084 C317.833332,122.612003 317.573334,123.223997 317.389333,123.92 C317.205333,124.616003 317.113333,125.343996 317.113333,126.104 C317.113333,127.224006 317.333331,128.069997 317.773333,128.642 C318.213336,129.214003 318.853329,129.5 319.693333,129.5 Z M319.489333,131.168 C318.82533,131.168 318.217336,131.054001 317.665333,130.826 C317.113331,130.597999 316.637335,130.268002 316.237333,129.836 C315.837331,129.403998 315.525335,128.876003 315.301333,128.252 C315.077332,127.627997 314.965333,126.916004 314.965333,126.116 C314.965333,125.091995 315.125332,124.128005 315.445333,123.224 C315.765335,122.319995 316.205331,121.530003 316.765333,120.854 C317.325336,120.177997 317.98333,119.644002 318.739333,119.252 C319.495337,118.859998 320.309329,118.664 321.181333,118.664 C321.845337,118.664 322.453331,118.777999 323.005333,119.006 C323.557336,119.234001 324.033331,119.563998 324.433333,119.996 C324.833335,120.428002 325.145332,120.955997 325.369333,121.58 C325.593335,122.204003 325.705333,122.911996 325.705333,123.704 C325.705333,124.720005 325.545335,125.679995 325.225333,126.584 C324.905332,127.488005 324.467336,128.279997 323.911333,128.96 C323.355331,129.640003 322.697337,130.177998 321.937333,130.574 C321.17733,130.970002 320.361338,131.168 319.489333,131.168 Z M341.406667,120.788 C341.342666,120.884 341.278667,120.954 341.214667,120.998 C341.150666,121.042 341.070667,121.064 340.974667,121.064 C340.862666,121.064 340.740667,121.02 340.608667,120.932 C340.476666,120.844 340.316668,120.746001 340.128667,120.638 C339.940666,120.529999 339.710668,120.43 339.438667,120.338 C339.166665,120.246 338.838669,120.2 338.454667,120.2 C338.094665,120.2 337.766668,120.25 337.470667,120.35 C337.174665,120.450001 336.920668,120.587999 336.708667,120.764 C336.496666,120.940001 336.332667,121.145999 336.216667,121.382 C336.100666,121.618001 336.042667,121.867999 336.042667,122.132 C336.042667,122.508002 336.166666,122.807999 336.414667,123.032 C336.662668,123.256001 336.974665,123.449999 337.350667,123.614 C337.726669,123.778001 338.130665,123.935999 338.562667,124.088 C338.994669,124.240001 339.398665,124.431999 339.774667,124.664 C340.150669,124.896001 340.462666,125.191998 340.710667,125.552 C340.958668,125.912002 341.082667,126.379997 341.082667,126.956 C341.082667,127.516003 340.972668,128.051997 340.752667,128.564 C340.532666,129.076003 340.216669,129.525998 339.804667,129.914 C339.392665,130.302002 338.89667,130.611999 338.316667,130.844 C337.736664,131.076001 337.08667,131.192 336.366667,131.192 C335.590663,131.192 334.90467,131.054001 334.308667,130.778 C333.712664,130.501999 333.226669,130.148002 332.850667,129.716 L333.378667,128.9 C333.450667,128.795999 333.528666,128.716 333.612667,128.66 C333.696667,128.604 333.806666,128.576 333.942667,128.576 C334.070667,128.576 334.198666,128.631999 334.326667,128.744 C334.454667,128.856001 334.614666,128.981999 334.806667,129.122 C334.998668,129.262001 335.240665,129.387999 335.532667,129.5 C335.824668,129.612001 336.194665,129.668 336.642667,129.668 C337.034669,129.668 337.388665,129.608001 337.704667,129.488 C338.020668,129.367999 338.288666,129.208001 338.508667,129.008 C338.728668,128.807999 338.896666,128.574001 339.012667,128.306 C339.128667,128.037999 339.186667,127.752002 339.186667,127.448 C339.186667,127.039998 339.062668,126.716001 338.814667,126.476 C338.566666,126.235999 338.254669,126.036001 337.878667,125.876 C337.502665,125.715999 337.098669,125.566001 336.666667,125.426 C336.234665,125.285999 335.830669,125.106001 335.454667,124.886 C335.078665,124.665999 334.766668,124.380002 334.518667,124.028 C334.270666,123.675998 334.146667,123.208003 334.146667,122.624 C334.146667,122.111997 334.248666,121.618002 334.452667,121.142 C334.656668,120.665998 334.950665,120.244002 335.334667,119.876 C335.718669,119.507998 336.184664,119.214001 336.732667,118.994 C337.28067,118.773999 337.898663,118.664 338.586667,118.664 C339.31467,118.664 339.956664,118.785999 340.512667,119.03 C341.06867,119.274001 341.546665,119.603998 341.946667,120.02 L341.406667,120.788 Z M351.765333,120.332 C351.589333,120.292 351.415334,120.266 351.243333,120.254 C351.071333,120.242 350.901334,120.236 350.733333,120.236 C350.253331,120.236 349.789336,120.313999 349.341333,120.47 C348.893331,120.626001 348.473335,120.843999 348.081333,121.124 C347.689332,121.404001 347.333335,121.737998 347.013333,122.126 C346.693332,122.514002 346.419335,122.939998 346.191333,123.404 C345.963332,123.868002 345.785334,124.361997 345.657333,124.886 C345.529333,125.410003 345.465333,125.947997 345.465333,126.5 C345.465333,128.42801 346.081327,129.392 347.313333,129.392 C347.705335,129.392 348.089332,129.270001 348.465333,129.026 C348.841335,128.781999 349.199332,128.442002 349.539333,128.006 C349.879335,127.569998 350.193332,127.054003 350.481333,126.458 C350.769335,125.861997 351.025332,125.208004 351.249333,124.496 L351.765333,120.332 Z M350.949333,127.796 C350.661332,128.308003 350.351335,128.771998 350.019333,129.188 C349.687332,129.604002 349.335335,129.957999 348.963333,130.25 C348.591332,130.542001 348.199336,130.767999 347.787333,130.928 C347.375331,131.088001 346.949336,131.168 346.509333,131.168 C346.029331,131.168 345.593335,131.074001 345.201333,130.886 C344.809332,130.697999 344.475335,130.422002 344.199333,130.058 C343.923332,129.693998 343.709334,129.246003 343.557333,128.714 C343.405333,128.181997 343.329333,127.572003 343.329333,126.884 C343.329333,126.163996 343.419333,125.462003 343.599333,124.778 C343.779334,124.093997 344.035332,123.448003 344.367333,122.84 C344.699335,122.231997 345.097331,121.674003 345.561333,121.166 C346.025336,120.657997 346.543331,120.218002 347.115333,119.846 C347.687336,119.473998 348.30133,119.186001 348.957333,118.982 C349.613337,118.777999 350.30133,118.676 351.021333,118.676 C351.541336,118.676 352.047331,118.718 352.539333,118.802 C353.031336,118.886 353.517331,119.031999 353.997333,119.24 L352.545333,131 L351.441333,131 C351.161332,131 350.971334,130.928001 350.871333,130.784 C350.771333,130.639999 350.721333,130.464001 350.721333,130.256 L350.949333,127.796 Z M367.116,118.844 L361.02,131 L359.244,131 L356.1,118.844 L357.828,118.844 C357.988001,118.844 358.116,118.888 358.212,118.976 C358.308001,119.064 358.372,119.167999 358.404,119.288 L360.204,127.112 C360.252,127.416002 360.292,127.715999 360.324,128.012 C360.356,128.308001 360.384,128.607998 360.408,128.912 C360.496001,128.615999 360.592,128.320001 360.696,128.024 C360.800001,127.727999 360.919999,127.424002 361.056,127.112 L364.812,119.288 C364.876,119.159999 364.964,119.054 365.076,118.97 C365.188001,118.886 365.315999,118.844 365.46,118.844 L367.116,118.844 Z M373.634667,120.212 C373.130664,120.212 372.666669,120.315999 372.242667,120.524 C371.818665,120.732001 371.442668,121.017998 371.114667,121.382 C370.786665,121.746002 370.506668,122.173998 370.274667,122.666 C370.042666,123.158002 369.862667,123.687997 369.734667,124.256 C370.966673,124.103999 371.954663,123.930001 372.698667,123.734 C373.442671,123.537999 374.014665,123.326001 374.414667,123.098 C374.814669,122.869999 375.078666,122.624001 375.206667,122.36 C375.334667,122.095999 375.398667,121.820001 375.398667,121.532 C375.398667,121.387999 375.366667,121.238001 375.302667,121.082 C375.238667,120.925999 375.136668,120.784001 374.996667,120.656 C374.856666,120.527999 374.674668,120.422 374.450667,120.338 C374.226666,120.254 373.954668,120.212 373.634667,120.212 Z M377.018667,128.756 C376.610665,129.180002 376.210669,129.541999 375.818667,129.842 C375.426665,130.142001 375.028669,130.391999 374.624667,130.592 C374.220665,130.792001 373.796669,130.938 373.352667,131.03 C372.908665,131.122 372.430669,131.168 371.918667,131.168 C371.222663,131.168 370.59867,131.052001 370.046667,130.82 C369.494664,130.587999 369.026669,130.258002 368.642667,129.83 C368.258665,129.401998 367.962668,128.884003 367.754667,128.276 C367.546666,127.667997 367.442667,126.988004 367.442667,126.236 C367.442667,125.611997 367.508666,124.990003 367.640667,124.37 C367.772667,123.749997 367.964666,123.160003 368.216667,122.6 C368.468668,122.039997 368.776665,121.520002 369.140667,121.04 C369.504669,120.559998 369.920664,120.146002 370.388667,119.798 C370.856669,119.449998 371.372664,119.176001 371.936667,118.976 C372.50067,118.775999 373.106664,118.676 373.754667,118.676 C374.37067,118.676 374.902665,118.763999 375.350667,118.94 C375.798669,119.116001 376.166665,119.339999 376.454667,119.612 C376.742668,119.884001 376.956666,120.183998 377.096667,120.512 C377.236668,120.840002 377.306667,121.151999 377.306667,121.448 C377.306667,121.976003 377.198668,122.461998 376.982667,122.906 C376.766666,123.350002 376.37067,123.749998 375.794667,124.106 C375.218664,124.462002 374.426672,124.771999 373.418667,125.036 C372.410662,125.300001 371.114675,125.511999 369.530667,125.672 C369.530667,125.76 369.528667,125.846 369.524667,125.93 C369.520667,126.014 369.518667,126.1 369.518667,126.188 C369.518667,127.260005 369.752664,128.077997 370.220667,128.642 C370.688669,129.206003 371.394662,129.488 372.338667,129.488 C372.722669,129.488 373.064665,129.448 373.364667,129.368 C373.664668,129.288 373.932666,129.190001 374.168667,129.074 C374.404668,128.957999 374.612666,128.830001 374.792667,128.69 C374.972668,128.549999 375.136666,128.422001 375.284667,128.306 C375.432668,128.189999 375.570666,128.092 375.698667,128.012 C375.826667,127.932 375.954666,127.892 376.082667,127.892 C376.234668,127.892 376.370666,127.959999 376.490667,128.096 L377.018667,128.756 Z M391.268,120.212 C390.763998,120.212 390.300002,120.315999 389.876,120.524 C389.451998,120.732001 389.076002,121.017998 388.748,121.382 C388.419999,121.746002 388.140001,122.173998 387.908,122.666 C387.675999,123.158002 387.496001,123.687997 387.368,124.256 C388.600006,124.103999 389.587996,123.930001 390.332,123.734 C391.076004,123.537999 391.647998,123.326001 392.048,123.098 C392.448002,122.869999 392.712,122.624001 392.84,122.36 C392.968001,122.095999 393.032,121.820001 393.032,121.532 C393.032,121.387999 393.000001,121.238001 392.936,121.082 C392.872,120.925999 392.770001,120.784001 392.63,120.656 C392.489999,120.527999 392.308001,120.422 392.084,120.338 C391.859999,120.254 391.588002,120.212 391.268,120.212 Z M394.652,128.756 C394.243998,129.180002 393.844002,129.541999 393.452,129.842 C393.059998,130.142001 392.662002,130.391999 392.258,130.592 C391.853998,130.792001 391.430002,130.938 390.986,131.03 C390.541998,131.122 390.064003,131.168 389.552,131.168 C388.855997,131.168 388.232003,131.052001 387.68,130.82 C387.127997,130.587999 386.660002,130.258002 386.276,129.83 C385.891998,129.401998 385.596001,128.884003 385.388,128.276 C385.179999,127.667997 385.076,126.988004 385.076,126.236 C385.076,125.611997 385.142,124.990003 385.274,124.37 C385.406001,123.749997 385.597999,123.160003 385.85,122.6 C386.102001,122.039997 386.409998,121.520002 386.774,121.04 C387.138002,120.559998 387.553998,120.146002 388.022,119.798 C388.490003,119.449998 389.005997,119.176001 389.57,118.976 C390.134003,118.775999 390.739997,118.676 391.388,118.676 C392.004003,118.676 392.535998,118.763999 392.984,118.94 C393.432002,119.116001 393.799999,119.339999 394.088,119.612 C394.376002,119.884001 394.589999,120.183998 394.73,120.512 C394.870001,120.840002 394.94,121.151999 394.94,121.448 C394.94,121.976003 394.832001,122.461998 394.616,122.906 C394.399999,123.350002 394.004003,123.749998 393.428,124.106 C392.851997,124.462002 392.060005,124.771999 391.052,125.036 C390.043995,125.300001 388.748008,125.511999 387.164,125.672 C387.164,125.76 387.162,125.846 387.158,125.93 C387.154,126.014 387.152,126.1 387.152,126.188 C387.152,127.260005 387.385998,128.077997 387.854,128.642 C388.322003,129.206003 389.027995,129.488 389.972,129.488 C390.356002,129.488 390.697999,129.448 390.998,129.368 C391.298002,129.288 391.565999,129.190001 391.802,129.074 C392.038001,128.957999 392.245999,128.830001 392.426,128.69 C392.606001,128.549999 392.769999,128.422001 392.918,128.306 C393.066001,128.189999 393.204,128.092 393.332,128.012 C393.460001,127.932 393.588,127.892 393.716,127.892 C393.868001,127.892 394.004,127.959999 394.124,128.096 L394.652,128.756 Z M399.898667,121.916 C400.54667,120.843995 401.278663,120.034003 402.094667,119.486 C402.910671,118.937997 403.750663,118.664 404.614667,118.664 C405.126669,118.664 405.576665,118.765999 405.964667,118.97 C406.352669,119.174001 406.668666,119.471998 406.912667,119.864 C407.156668,120.256002 407.322666,120.737997 407.410667,121.31 C407.498667,121.882003 407.498667,122.531996 407.410667,123.26 L406.498667,131 L404.374667,131 L405.286667,123.26 C405.398667,122.299995 405.338668,121.590002 405.106667,121.13 C404.874666,120.669998 404.44667,120.44 403.822667,120.44 C403.438665,120.44 403.048669,120.543999 402.652667,120.752 C402.256665,120.960001 401.874669,121.255998 401.506667,121.64 C401.138665,122.024002 400.796668,122.485997 400.480667,123.026 C400.164665,123.566003 399.894668,124.167997 399.670667,124.832 L398.974667,131 L396.838667,131 L398.302667,118.832 L399.358667,118.832 C399.838669,118.832 400.078667,119.071998 400.078667,119.552 L399.898667,121.916 Z M416.005334,120.212 C415.501331,120.212 415.037336,120.315999 414.613334,120.524 C414.189331,120.732001 413.813335,121.017998 413.485334,121.382 C413.157332,121.746002 412.877335,122.173998 412.645334,122.666 C412.413332,123.158002 412.233334,123.687997 412.105334,124.256 C413.33734,124.103999 414.32533,123.930001 415.069334,123.734 C415.813337,123.537999 416.385332,123.326001 416.785334,123.098 C417.185336,122.869999 417.449333,122.624001 417.577334,122.36 C417.705334,122.095999 417.769334,121.820001 417.769334,121.532 C417.769334,121.387999 417.737334,121.238001 417.673334,121.082 C417.609333,120.925999 417.507334,120.784001 417.367334,120.656 C417.227333,120.527999 417.045335,120.422 416.821334,120.338 C416.597332,120.254 416.325335,120.212 416.005334,120.212 Z M419.389334,128.756 C418.981332,129.180002 418.581336,129.541999 418.189334,129.842 C417.797332,130.142001 417.399336,130.391999 416.995334,130.592 C416.591332,130.792001 416.167336,130.938 415.723334,131.03 C415.279331,131.122 414.801336,131.168 414.289334,131.168 C413.59333,131.168 412.969336,131.052001 412.417334,130.82 C411.865331,130.587999 411.397335,130.258002 411.013334,129.83 C410.629332,129.401998 410.333335,128.884003 410.125334,128.276 C409.917333,127.667997 409.813334,126.988004 409.813334,126.236 C409.813334,125.611997 409.879333,124.990003 410.011334,124.37 C410.143334,123.749997 410.335332,123.160003 410.587334,122.6 C410.839335,122.039997 411.147332,121.520002 411.511334,121.04 C411.875335,120.559998 412.291331,120.146002 412.759334,119.798 C413.227336,119.449998 413.743331,119.176001 414.307334,118.976 C414.871336,118.775999 415.47733,118.676 416.125334,118.676 C416.741337,118.676 417.273331,118.763999 417.721334,118.94 C418.169336,119.116001 418.537332,119.339999 418.825334,119.612 C419.113335,119.884001 419.327333,120.183998 419.467334,120.512 C419.607334,120.840002 419.677334,121.151999 419.677334,121.448 C419.677334,121.976003 419.569335,122.461998 419.353334,122.906 C419.137332,123.350002 418.741336,123.749998 418.165334,124.106 C417.589331,124.462002 416.797339,124.771999 415.789334,125.036 C414.781329,125.300001 413.485341,125.511999 411.901334,125.672 C411.901334,125.76 411.899334,125.846 411.895334,125.93 C411.891334,126.014 411.889334,126.1 411.889334,126.188 C411.889334,127.260005 412.123331,128.077997 412.591334,128.642 C413.059336,129.206003 413.765329,129.488 414.709334,129.488 C415.093335,129.488 415.435332,129.448 415.735334,129.368 C416.035335,129.288 416.303332,129.190001 416.539334,129.074 C416.775335,128.957999 416.983333,128.830001 417.163334,128.69 C417.343334,128.549999 417.507333,128.422001 417.655334,128.306 C417.803334,128.189999 417.941333,128.092 418.069334,128.012 C418.197334,127.932 418.325333,127.892 418.453334,127.892 C418.605334,127.892 418.741333,127.959999 418.861334,128.096 L419.389334,128.756 Z M424.624,122.228 C424.944002,121.547997 425.289998,120.958002 425.662,120.458 C426.034002,119.957998 426.423998,119.566001 426.832,119.282 C427.240002,118.997999 427.659998,118.826 428.092,118.766 C428.524002,118.706 428.963998,118.771999 429.412,118.964 L429.028,121.016 C427.987995,120.599998 427.070004,120.751996 426.274,121.472 C425.477996,122.192004 424.832003,123.491991 424.336,125.372 L423.664,131 L421.576,131 L423.04,118.832 L424.096,118.832 C424.584003,118.832 424.828,119.071998 424.828,119.552 L424.624,122.228 Z M434.454667,125.516 C434.886669,125.516 435.268665,125.422001 435.600667,125.234 C435.932669,125.045999 436.212666,124.798002 436.440667,124.49 C436.668668,124.181998 436.842666,123.836002 436.962667,123.452 C437.082668,123.067998 437.142667,122.680002 437.142667,122.288 C437.142667,121.583996 436.964669,121.052002 436.608667,120.692 C436.252665,120.331998 435.76267,120.152 435.138667,120.152 C434.706665,120.152 434.326669,120.239999 433.998667,120.416 C433.670665,120.592001 433.392668,120.827999 433.164667,121.124 C432.936666,121.420001 432.764667,121.755998 432.648667,122.132 C432.532666,122.508002 432.474667,122.899998 432.474667,123.308 C432.474667,124.028004 432.648665,124.575998 432.996667,124.952 C433.344669,125.328002 433.830664,125.516 434.454667,125.516 Z M436.866667,131.3 C436.866667,131.083999 436.846667,130.886001 436.806667,130.706 C436.766667,130.525999 436.714667,130.356001 436.650667,130.196 C435.594662,130.027999 434.682671,129.966 433.914667,130.01 C433.146663,130.054 432.512669,130.171999 432.012667,130.364 C431.512664,130.556001 431.142668,130.803998 430.902667,131.108 C430.662666,131.412002 430.542667,131.739998 430.542667,132.092 C430.542667,132.668003 430.784664,133.107998 431.268667,133.412 C431.752669,133.716002 432.438662,133.868 433.326667,133.868 C433.85467,133.868 434.336665,133.798001 434.772667,133.658 C435.208669,133.517999 435.580665,133.332001 435.888667,133.1 C436.196668,132.867999 436.436666,132.596002 436.608667,132.284 C436.780668,131.971998 436.866667,131.644002 436.866667,131.3 Z M440.946667,119.288 L440.862667,119.996 C440.822667,120.284001 440.662668,120.476 440.382667,120.572 L438.858667,120.836 C439.010668,121.252002 439.086667,121.711997 439.086667,122.216 C439.086667,122.616002 439.040667,122.975998 438.948667,123.296 C438.856666,123.616002 438.742668,123.911999 438.606667,124.184 C438.470666,124.456001 438.322668,124.711999 438.162667,124.952 C438.002666,125.192001 437.854668,125.429999 437.718667,125.666 C437.582666,125.902001 437.468667,126.145999 437.376667,126.398 C437.284666,126.650001 437.238667,126.923999 437.238667,127.22 C437.238667,127.436001 437.276667,127.641999 437.352667,127.838 C437.428667,128.034001 437.524666,128.225999 437.640667,128.414 C437.756667,128.602001 437.884666,128.791999 438.024667,128.984 C438.164668,129.176001 438.292666,129.379999 438.408667,129.596 C438.524667,129.812001 438.620667,130.045999 438.696667,130.298 C438.772667,130.550001 438.810667,130.827998 438.810667,131.132 C438.802667,131.700003 438.666668,132.237997 438.402667,132.746 C438.138666,133.254003 437.762669,133.703998 437.274667,134.096 C436.786664,134.488002 436.19467,134.797999 435.498667,135.026 C434.802663,135.254001 434.018671,135.368 433.146667,135.368 C432.450663,135.368 431.81667,135.296001 431.244667,135.152 C430.672664,135.007999 430.184669,134.804001 429.780667,134.54 C429.376665,134.275999 429.064668,133.958002 428.844667,133.586 C428.624666,133.213998 428.514667,132.804002 428.514667,132.356 C428.514667,131.843997 428.622666,131.392002 428.838667,131 C429.054668,130.607998 429.346665,130.270001 429.714667,129.986 C430.082669,129.701999 430.510664,129.468001 430.998667,129.284 C431.486669,129.099999 432.004664,128.964 432.552667,128.876 C433.10067,128.788 433.662664,128.746 434.238667,128.75 C434.81467,128.754 435.378664,128.796 435.930667,128.876 C435.858667,128.723999 435.800667,128.566001 435.756667,128.402 C435.712667,128.237999 435.690667,128.060001 435.690667,127.868 C435.690667,127.619999 435.728667,127.364001 435.804667,127.1 C435.880667,126.835999 436.006666,126.536002 436.182667,126.2 C435.878665,126.408001 435.538669,126.569999 435.162667,126.686 C434.786665,126.802001 434.358669,126.86 433.878667,126.86 C433.414665,126.86 432.980669,126.784001 432.576667,126.632 C432.172665,126.479999 431.818668,126.256001 431.514667,125.96 C431.210665,125.663999 430.970668,125.294002 430.794667,124.85 C430.618666,124.405998 430.530667,123.888003 430.530667,123.296 C430.530667,122.719997 430.636666,122.154003 430.848667,121.598 C431.060668,121.041997 431.370665,120.546002 431.778667,120.11 C432.186669,119.673998 432.690664,119.324001 433.290667,119.06 C433.89067,118.795999 434.582663,118.664 435.366667,118.664 C435.798669,118.664 436.210665,118.715999 436.602667,118.82 C436.994669,118.924001 437.346665,119.079999 437.658667,119.288 L440.946667,119.288 Z M452.973334,118.844 L444.765334,134.624 C444.677333,134.792001 444.575334,134.916 444.459334,134.996 C444.343333,135.076 444.197334,135.116 444.021334,135.116 L442.449334,135.116 L445.089334,130.28 L441.933334,118.844 L443.697334,118.844 C443.873334,118.844 444.001333,118.886 444.081334,118.97 C444.161334,119.054 444.221333,119.159999 444.261334,119.288 L446.217334,126.944 C446.257334,127.112001 446.289333,127.279999 446.313334,127.448 C446.337334,127.616001 446.357334,127.783999 446.373334,127.952 C446.445334,127.783999 446.517333,127.614001 446.589334,127.442 C446.661334,127.269999 446.737333,127.100001 446.817334,126.932 L450.657334,119.264 C450.721334,119.135999 450.811333,119.034 450.927334,118.958 C451.043334,118.882 451.161333,118.844 451.281334,118.844 L452.973334,118.844 Z M458.004,113.804 L457.164,120.692 C457.116,121.052002 457.064001,121.401998 457.008,121.742 C456.952,122.082002 456.890001,122.423998 456.822,122.768 C456.754,123.112002 456.680001,123.467998 456.6,123.836 C456.52,124.204002 456.432001,124.595998 456.336,125.012 L454.944,125.012 C454.952,124.595998 454.962,124.204002 454.974,123.836 C454.986,123.467998 455.002,123.112002 455.022,122.768 C455.042,122.423998 455.066,122.082002 455.094,121.742 C455.122,121.401998 455.16,121.052002 455.208,120.692 L456.048,113.804 L458.004,113.804 Z M453.744,129.68 C453.744,129.471999 453.782,129.276001 453.858,129.092 C453.934001,128.907999 454.038,128.748001 454.17,128.612 C454.302001,128.475999 454.457999,128.368 454.638,128.288 C454.818001,128.208 455.015999,128.168 455.232,128.168 C455.440001,128.168 455.633999,128.208 455.814,128.288 C455.994001,128.368 456.152,128.475999 456.288,128.612 C456.424001,128.748001 456.532,128.907999 456.612,129.092 C456.692001,129.276001 456.732,129.471999 456.732,129.68 C456.732,129.896001 456.692001,130.093999 456.612,130.274 C456.532,130.454001 456.424001,130.611999 456.288,130.748 C456.152,130.884001 455.994001,130.99 455.814,131.066 C455.633999,131.142 455.440001,131.18 455.232,131.18 C455.015999,131.18 454.818001,131.142 454.638,131.066 C454.457999,130.99 454.302001,130.884001 454.17,130.748 C454.038,130.611999 453.934001,130.454001 453.858,130.274 C453.782,130.093999 453.744,129.896001 453.744,129.68 Z"/>
  </g>
</svg>
